# xmcd
#
# Track frame offsets:
#	150
#	13734
#	30751
#	43663
#	59282
#	74209
#	84237
#	94489
#	104121
#	120921
#	129447
#	157695
#	177520
#	194289
#	202948
#	211554
#	226784
#	234887
#	240911
#	248401
#	267660
# Disc length: 3779 seconds
# Revision: 1
# Processed by: cddbd v1.5.1PL0 Copyright (c) Steve Scherf et al.
#
# Submitted via: libkcddb 0.21
#
DISCID=090ec115
DTITLE=Ray Cummins - guitar varieties
DYEAR=2005
DGENRE=Country
TTITLE0=Cascade
TTITLE1=Orange Blossom Special
TTITLE2=Mr. Sandman
TTITLE3=Precious Memories
TTITLE4=Wildwood Flower
TTITLE5=I Love How You Love Me
TTITLE6=Melody of Love
TTITLE7=Learning to Lean
TTITLE8=Mr. Sandman
TTITLE9=Yackety Axe
TTITLE10=End of the Road
TTITLE11=Magic in Your Eyes
TTITLE12=Here Comes the Song
TTITLE13=Colonel Bogey
TTITLE14=Levee Walking
TTITLE15=Sunrise
TTITLE16=Jesus Loves Me
TTITLE17=In the Garden
TTITLE18=The Shadow of Your Smile
TTITLE19=Armed Forces Medley
TTITLE20=Recuerdos de la Alhambra
EXTD=
EXTT0=
EXTT1=
EXTT2=
EXTT3=
EXTT4=
EXTT5=
EXTT6=
EXTT7=
EXTT8=
EXTT9=
EXTT10=
EXTT11=
EXTT12=
EXTT13=
EXTT14=
EXTT15=
EXTT16=
EXTT17=
EXTT18=
EXTT19=
EXTT20=
PLAYORDER=
